<svg width="128" height="128" viewBox="0 0 128 128" fill="none" xmlns="http://www.w3.org/2000/svg">
<g opacity="0.378249" filter="url(#filter0_f_3391_47730)">
<path d="M20 64C20 39.6995 39.6995 20 64 20C88.3005 20 108 39.6995 108 64C108 88.3005 88.3005 108 64 108C39.6995 108 20 88.3005 20 64Z" fill="#00C950"/>
</g>
<g filter="url(#filter1_dd_3391_47730)">
<path d="M20 64C20 39.6995 39.6995 20 64 20C88.3005 20 108 39.6995 108 64C108 88.3005 88.3005 108 64 108C39.6995 108 20 88.3005 20 64Z" fill="white" shape-rendering="crispEdges"/>
<path d="M64.0001 88.4446C77.5004 88.4446 88.4446 77.5004 88.4446 64.0001C88.4446 50.4998 77.5004 39.5557 64.0001 39.5557C50.4998 39.5557 39.5557 50.4998 39.5557 64.0001C39.5557 77.5004 50.4998 88.4446 64.0001 88.4446Z" stroke="#00C950" stroke-width="4.88889" stroke-linecap="round" stroke-linejoin="round"/>
<path d="M56.667 64.0002L61.5559 68.8891L71.3337 59.1113" stroke="#00C950" stroke-width="4.88889" stroke-linecap="round" stroke-linejoin="round"/>
</g>
<defs>
<filter id="filter0_f_3391_47730" x="0" y="0" width="128" height="128" filterUnits="userSpaceOnUse" color-interpolation-filters="sRGB">
<feFlood flood-opacity="0" result="BackgroundImageFix"/>
<feBlend mode="normal" in="SourceGraphic" in2="BackgroundImageFix" result="shape"/>
<feGaussianBlur stdDeviation="10" result="effect1_foregroundBlur_3391_47730"/>
</filter>
<filter id="filter1_dd_3391_47730" x="14.75" y="18.75" width="98.5" height="98.5" filterUnits="userSpaceOnUse" color-interpolation-filters="sRGB">
<feFlood flood-opacity="0" result="BackgroundImageFix"/>
<feColorMatrix in="SourceAlpha" type="matrix" values="0 0 0 0 0 0 0 0 0 0 0 0 0 0 0 0 0 0 127 0" result="hardAlpha"/>
<feMorphology radius="3.66667" operator="erode" in="SourceAlpha" result="effect1_dropShadow_3391_47730"/>
<feOffset dy="3"/>
<feGaussianBlur stdDeviation="2.75"/>
<feComposite in2="hardAlpha" operator="out"/>
<feColorMatrix type="matrix" values="0 0 0 0 0 0 0 0 0 0 0 0 0 0 0 0 0 0 0.1 0"/>
<feBlend mode="normal" in2="BackgroundImageFix" result="effect1_dropShadow_3391_47730"/>
<feColorMatrix in="SourceAlpha" type="matrix" values="0 0 0 0 0 0 0 0 0 0 0 0 0 0 0 0 0 0 127 0" result="hardAlpha"/>
<feMorphology radius="2.75" operator="erode" in="SourceAlpha" result="effect2_dropShadow_3391_47730"/>
<feOffset dy="4"/>
<feGaussianBlur stdDeviation="4"/>
<feComposite in2="hardAlpha" operator="out"/>
<feColorMatrix type="matrix" values="0 0 0 0 0 0 0 0 0 0 0 0 0 0 0 0 0 0 0.1 0"/>
<feBlend mode="normal" in2="effect1_dropShadow_3391_47730" result="effect2_dropShadow_3391_47730"/>
<feBlend mode="normal" in="SourceGraphic" in2="effect2_dropShadow_3391_47730" result="shape"/>
</filter>
</defs>
</svg>
