<?xml version="1.0" encoding="utf-8" ?>
<svg baseProfile="full" height="600" version="1.1" width="800" xmlns="http://www.w3.org/2000/svg" xmlns:ev="http://www.w3.org/2001/xml-events" xmlns:xlink="http://www.w3.org/1999/xlink"><defs><radialGradient cx="50%" cy="20%" id="blueGrad" r="50%"><stop offset="0" stop-color="#d6e4ff" stop-opacity="0.2" /><stop offset="1" stop-color="#ffffff" stop-opacity="0" /></radialGradient><radialGradient cx="50%" cy="90%" id="orangeGrad" r="50%"><stop offset="0" stop-color="#facc15" stop-opacity="0.2" /><stop offset="1" stop-color="#ffffff" stop-opacity="0" /></radialGradient></defs><line stroke="#d6e4ff" stroke-opacity="0.5" stroke-width="0.5" x1="400.0" x2="1400.0" y1="120.0" y2="120.0" /><line stroke="#d6e4ff" stroke-opacity="0.5" stroke-width="0.5" x1="400.0" x2="1394.5218953682734" y1="120.0" y2="224.52846326765345" /><line stroke="#d6e4ff" stroke-opacity="0.5" stroke-width="0.5" x1="400.0" x2="1378.1476007338056" y1="120.0" y2="327.91169081775934" /><line stroke="#d6e4ff" stroke-opacity="0.5" stroke-width="0.5" x1="400.0" x2="1351.0565162951534" y1="120.0" y2="429.0169943749474" /><line stroke="#d6e4ff" stroke-opacity="0.5" stroke-width="0.5" x1="400.0" x2="1313.545457642601" y1="120.0" y2="526.7366430758002" /><line stroke="#d6e4ff" stroke-opacity="0.5" stroke-width="0.5" x1="400.0" x2="1266.0254037844388" y1="120.0" y2="620.0" /><line stroke="#d6e4ff" stroke-opacity="0.5" stroke-width="0.5" x1="400.0" x2="1209.0169943749474" y1="120.0" y2="707.7852522924732" /><line stroke="#d6e4ff" stroke-opacity="0.5" stroke-width="0.5" x1="400.0" x2="1143.1448254773943" y1="120.0" y2="789.1306063588581" /><line stroke="#d6e4ff" stroke-opacity="0.5" stroke-width="0.5" x1="400.0" x2="1069.1306063588581" y1="120.0" y2="863.1448254773941" /><line stroke="#d6e4ff" stroke-opacity="0.5" stroke-width="0.5" x1="400.0" x2="987.7852522924732" y1="120.0" y2="929.0169943749474" /><line stroke="#d6e4ff" stroke-opacity="0.5" stroke-width="0.5" x1="400.0" x2="900.0000000000001" y1="120.0" y2="986.0254037844386" /><line stroke="#d6e4ff" stroke-opacity="0.5" stroke-width="0.5" x1="400.0" x2="806.7366430758004" y1="120.0" y2="1033.545457642601" /><line stroke="#d6e4ff" stroke-opacity="0.5" stroke-width="0.5" x1="400.0" x2="709.0169943749474" y1="120.0" y2="1071.0565162951534" /><line stroke="#d6e4ff" stroke-opacity="0.5" stroke-width="0.5" x1="400.0" x2="607.9116908177594" y1="120.0" y2="1098.1476007338056" /><line stroke="#d6e4ff" stroke-opacity="0.5" stroke-width="0.5" x1="400.0" x2="504.5284632676537" y1="120.0" y2="1114.5218953682734" /><line stroke="#d6e4ff" stroke-opacity="0.5" stroke-width="0.5" x1="400.0" x2="400.00000000000006" y1="120.0" y2="1120.0" /><line stroke="#d6e4ff" stroke-opacity="0.5" stroke-width="0.5" x1="400.0" x2="295.47153673234664" y1="120.0" y2="1114.5218953682734" /><line stroke="#d6e4ff" stroke-opacity="0.5" stroke-width="0.5" x1="400.0" x2="192.0883091822409" y1="120.0" y2="1098.1476007338056" /><line stroke="#d6e4ff" stroke-opacity="0.5" stroke-width="0.5" x1="400.0" x2="90.98300562505267" y1="120.0" y2="1071.0565162951536" /><line stroke="#d6e4ff" stroke-opacity="0.5" stroke-width="0.5" x1="400.0" x2="-6.736643075800032" y1="120.0" y2="1033.545457642601" /><line stroke="#d6e4ff" stroke-opacity="0.5" stroke-width="0.5" x1="400.0" x2="-99.99999999999977" y1="120.0" y2="986.0254037844387" /><line stroke="#d6e4ff" stroke-opacity="0.5" stroke-width="0.5" x1="400.0" x2="-187.78525229247305" y1="120.0" y2="929.0169943749474" /><line stroke="#d6e4ff" stroke-opacity="0.5" stroke-width="0.5" x1="400.0" x2="-269.1306063588579" y1="120.0" y2="863.1448254773944" /><line stroke="#d6e4ff" stroke-opacity="0.5" stroke-width="0.5" x1="400.0" x2="-343.1448254773941" y1="120.0" y2="789.1306063588584" /><line stroke="#d6e4ff" stroke-opacity="0.5" stroke-width="0.5" x1="400.0" x2="-409.01699437494733" y1="120.0" y2="707.7852522924733" /><line stroke="#d6e4ff" stroke-opacity="0.5" stroke-width="0.5" x1="400.0" x2="-466.0254037844385" y1="120.0" y2="620.0000000000003" /><line stroke="#d6e4ff" stroke-opacity="0.5" stroke-width="0.5" x1="400.0" x2="-513.5454576426008" y1="120.0" y2="526.7366430758004" /><line stroke="#d6e4ff" stroke-opacity="0.5" stroke-width="0.5" x1="400.0" x2="-551.0565162951535" y1="120.0" y2="429.0169943749475" /><line stroke="#d6e4ff" stroke-opacity="0.5" stroke-width="0.5" x1="400.0" x2="-578.1476007338056" y1="120.0" y2="327.91169081775973" /><line stroke="#d6e4ff" stroke-opacity="0.5" stroke-width="0.5" x1="400.0" x2="-594.5218953682732" y1="120.0" y2="224.52846326765373" /><line stroke="#d6e4ff" stroke-opacity="0.5" stroke-width="0.5" x1="400.0" x2="-600.0" y1="120.0" y2="120.00000000000013" /><line stroke="#d6e4ff" stroke-opacity="0.5" stroke-width="0.5" x1="400.0" x2="-594.5218953682734" y1="120.0" y2="15.471536732346948" /><line stroke="#d6e4ff" stroke-opacity="0.5" stroke-width="0.5" x1="400.0" x2="-578.1476007338057" y1="120.0" y2="-87.91169081775905" /><line stroke="#d6e4ff" stroke-opacity="0.5" stroke-width="0.5" x1="400.0" x2="-551.0565162951536" y1="120.0" y2="-189.01699437494727" /><line stroke="#d6e4ff" stroke-opacity="0.5" stroke-width="0.5" x1="400.0" x2="-513.545457642601" y1="120.0" y2="-286.7366430757998" /><line stroke="#d6e4ff" stroke-opacity="0.5" stroke-width="0.5" x1="400.0" x2="-466.0254037844388" y1="120.0" y2="-379.9999999999997" /><line stroke="#d6e4ff" stroke-opacity="0.5" stroke-width="0.5" x1="400.0" x2="-409.01699437494756" y1="120.0" y2="-467.78525229247305" /><line stroke="#d6e4ff" stroke-opacity="0.5" stroke-width="0.5" x1="400.0" x2="-343.14482547739453" y1="120.0" y2="-549.1306063588579" /><line stroke="#d6e4ff" stroke-opacity="0.5" stroke-width="0.5" x1="400.0" x2="-269.1306063588585" y1="120.0" y2="-623.1448254773941" /><line stroke="#d6e4ff" stroke-opacity="0.5" stroke-width="0.5" x1="400.0" x2="-187.78525229247327" y1="120.0" y2="-689.0169943749473" /><line stroke="#d6e4ff" stroke-opacity="0.5" stroke-width="0.5" x1="400.0" x2="-100.00000000000045" y1="120.0" y2="-746.0254037844384" /><line stroke="#d6e4ff" stroke-opacity="0.5" stroke-width="0.5" x1="400.0" x2="-6.736643075800885" y1="120.0" y2="-793.5454576426006" /><line stroke="#d6e4ff" stroke-opacity="0.5" stroke-width="0.5" x1="400.0" x2="90.98300562505244" y1="120.0" y2="-831.0565162951535" /><line stroke="#d6e4ff" stroke-opacity="0.5" stroke-width="0.5" x1="400.0" x2="192.0883091822402" y1="120.0" y2="-858.1476007338056" /><line stroke="#d6e4ff" stroke-opacity="0.5" stroke-width="0.5" x1="400.0" x2="295.4715367323458" y1="120.0" y2="-874.5218953682732" /><line stroke="#d6e4ff" stroke-opacity="0.5" stroke-width="0.5" x1="400.0" x2="399.99999999999983" y1="120.0" y2="-880.0" /><line stroke="#d6e4ff" stroke-opacity="0.5" stroke-width="0.5" x1="400.0" x2="504.52846326765297" y1="120.0" y2="-874.5218953682734" /><line stroke="#d6e4ff" stroke-opacity="0.5" stroke-width="0.5" x1="400.0" x2="607.9116908177585" y1="120.0" y2="-858.1476007338058" /><line stroke="#d6e4ff" stroke-opacity="0.5" stroke-width="0.5" x1="400.0" x2="709.0169943749472" y1="120.0" y2="-831.0565162951536" /><line stroke="#d6e4ff" stroke-opacity="0.5" stroke-width="0.5" x1="400.0" x2="806.7366430757997" y1="120.0" y2="-793.545457642601" /><line stroke="#d6e4ff" stroke-opacity="0.5" stroke-width="0.5" x1="400.0" x2="899.9999999999993" y1="120.0" y2="-746.025403784439" /><line stroke="#d6e4ff" stroke-opacity="0.5" stroke-width="0.5" x1="400.0" x2="987.7852522924729" y1="120.0" y2="-689.0169943749476" /><line stroke="#d6e4ff" stroke-opacity="0.5" stroke-width="0.5" x1="400.0" x2="1069.1306063588577" y1="120.0" y2="-623.1448254773945" /><line stroke="#d6e4ff" stroke-opacity="0.5" stroke-width="0.5" x1="400.0" x2="1143.1448254773936" y1="120.0" y2="-549.1306063588588" /><line stroke="#d6e4ff" stroke-opacity="0.5" stroke-width="0.5" x1="400.0" x2="1209.0169943749474" y1="120.0" y2="-467.7852522924734" /><line stroke="#d6e4ff" stroke-opacity="0.5" stroke-width="0.5" x1="400.0" x2="1266.0254037844384" y1="120.0" y2="-380.00000000000045" /><line stroke="#d6e4ff" stroke-opacity="0.5" stroke-width="0.5" x1="400.0" x2="1313.5454576426005" y1="120.0" y2="-286.73664307580094" /><line stroke="#d6e4ff" stroke-opacity="0.5" stroke-width="0.5" x1="400.0" x2="1351.0565162951534" y1="120.0" y2="-189.01699437494761" /><line stroke="#d6e4ff" stroke-opacity="0.5" stroke-width="0.5" x1="400.0" x2="1378.1476007338056" y1="120.0" y2="-87.91169081775988" /><line stroke="#d6e4ff" stroke-opacity="0.5" stroke-width="0.5" x1="400.0" x2="1394.5218953682734" y1="120.0" y2="15.471536732345697" /><line stroke="#facc15" stroke-opacity="0.4" stroke-width="0.5" x1="400.0" x2="1400.0" y1="540.0" y2="540.0" /><line stroke="#facc15" stroke-opacity="0.4" stroke-width="0.5" x1="400.0" x2="1394.5218953682734" y1="540.0" y2="644.5284632676535" /><line stroke="#facc15" stroke-opacity="0.4" stroke-width="0.5" x1="400.0" x2="1378.1476007338056" y1="540.0" y2="747.9116908177593" /><line stroke="#facc15" stroke-opacity="0.4" stroke-width="0.5" x1="400.0" x2="1351.0565162951534" y1="540.0" y2="849.0169943749474" /><line stroke="#facc15" stroke-opacity="0.4" stroke-width="0.5" x1="400.0" x2="1313.545457642601" y1="540.0" y2="946.7366430758002" /><line stroke="#facc15" stroke-opacity="0.4" stroke-width="0.5" x1="400.0" x2="1266.0254037844388" y1="540.0" y2="1040.0" /><line stroke="#facc15" stroke-opacity="0.4" stroke-width="0.5" x1="400.0" x2="1209.0169943749474" y1="540.0" y2="1127.7852522924732" /><line stroke="#facc15" stroke-opacity="0.4" stroke-width="0.5" x1="400.0" x2="1143.1448254773943" y1="540.0" y2="1209.1306063588581" /><line stroke="#facc15" stroke-opacity="0.4" stroke-width="0.5" x1="400.0" x2="1069.1306063588581" y1="540.0" y2="1283.144825477394" /><line stroke="#facc15" stroke-opacity="0.4" stroke-width="0.5" x1="400.0" x2="987.7852522924732" y1="540.0" y2="1349.0169943749474" /><line stroke="#facc15" stroke-opacity="0.4" stroke-width="0.5" x1="400.0" x2="900.0000000000001" y1="540.0" y2="1406.0254037844386" /><line stroke="#facc15" stroke-opacity="0.4" stroke-width="0.5" x1="400.0" x2="806.7366430758004" y1="540.0" y2="1453.545457642601" /><line stroke="#facc15" stroke-opacity="0.4" stroke-width="0.5" x1="400.0" x2="709.0169943749474" y1="540.0" y2="1491.0565162951534" /><line stroke="#facc15" stroke-opacity="0.4" stroke-width="0.5" x1="400.0" x2="607.9116908177594" y1="540.0" y2="1518.1476007338056" /><line stroke="#facc15" stroke-opacity="0.4" stroke-width="0.5" x1="400.0" x2="504.5284632676537" y1="540.0" y2="1534.5218953682734" /><line stroke="#facc15" stroke-opacity="0.4" stroke-width="0.5" x1="400.0" x2="400.00000000000006" y1="540.0" y2="1540.0" /><line stroke="#facc15" stroke-opacity="0.4" stroke-width="0.5" x1="400.0" x2="295.47153673234664" y1="540.0" y2="1534.5218953682734" /><line stroke="#facc15" stroke-opacity="0.4" stroke-width="0.5" x1="400.0" x2="192.0883091822409" y1="540.0" y2="1518.1476007338056" /><line stroke="#facc15" stroke-opacity="0.4" stroke-width="0.5" x1="400.0" x2="90.98300562505267" y1="540.0" y2="1491.0565162951536" /><line stroke="#facc15" stroke-opacity="0.4" stroke-width="0.5" x1="400.0" x2="-6.736643075800032" y1="540.0" y2="1453.545457642601" /><line stroke="#facc15" stroke-opacity="0.4" stroke-width="0.5" x1="400.0" x2="-99.99999999999977" y1="540.0" y2="1406.0254037844388" /><line stroke="#facc15" stroke-opacity="0.4" stroke-width="0.5" x1="400.0" x2="-187.78525229247305" y1="540.0" y2="1349.0169943749474" /><line stroke="#facc15" stroke-opacity="0.4" stroke-width="0.5" x1="400.0" x2="-269.1306063588579" y1="540.0" y2="1283.1448254773945" /><line stroke="#facc15" stroke-opacity="0.4" stroke-width="0.5" x1="400.0" x2="-343.1448254773941" y1="540.0" y2="1209.1306063588584" /><line stroke="#facc15" stroke-opacity="0.4" stroke-width="0.5" x1="400.0" x2="-409.01699437494733" y1="540.0" y2="1127.7852522924732" /><line stroke="#facc15" stroke-opacity="0.4" stroke-width="0.5" x1="400.0" x2="-466.0254037844385" y1="540.0" y2="1040.0000000000005" /><line stroke="#facc15" stroke-opacity="0.4" stroke-width="0.5" x1="400.0" x2="-513.5454576426008" y1="540.0" y2="946.7366430758004" /><line stroke="#facc15" stroke-opacity="0.4" stroke-width="0.5" x1="400.0" x2="-551.0565162951535" y1="540.0" y2="849.0169943749474" /><line stroke="#facc15" stroke-opacity="0.4" stroke-width="0.5" x1="400.0" x2="-578.1476007338056" y1="540.0" y2="747.9116908177598" /><line stroke="#facc15" stroke-opacity="0.4" stroke-width="0.5" x1="400.0" x2="-594.5218953682732" y1="540.0" y2="644.5284632676537" /><line stroke="#facc15" stroke-opacity="0.4" stroke-width="0.5" x1="400.0" x2="-600.0" y1="540.0" y2="540.0000000000001" /><line stroke="#facc15" stroke-opacity="0.4" stroke-width="0.5" x1="400.0" x2="-594.5218953682734" y1="540.0" y2="435.471536732347" /><line stroke="#facc15" stroke-opacity="0.4" stroke-width="0.5" x1="400.0" x2="-578.1476007338057" y1="540.0" y2="332.08830918224095" /><line stroke="#facc15" stroke-opacity="0.4" stroke-width="0.5" x1="400.0" x2="-551.0565162951536" y1="540.0" y2="230.98300562505273" /><line stroke="#facc15" stroke-opacity="0.4" stroke-width="0.5" x1="400.0" x2="-513.545457642601" y1="540.0" y2="133.2633569242002" /><line stroke="#facc15" stroke-opacity="0.4" stroke-width="0.5" x1="400.0" x2="-466.0254037844388" y1="540.0" y2="40.000000000000284" /><line stroke="#facc15" stroke-opacity="0.4" stroke-width="0.5" x1="400.0" x2="-409.01699437494756" y1="540.0" y2="-47.78525229247305" /><line stroke="#facc15" stroke-opacity="0.4" stroke-width="0.5" x1="400.0" x2="-343.14482547739453" y1="540.0" y2="-129.1306063588579" /><line stroke="#facc15" stroke-opacity="0.4" stroke-width="0.5" x1="400.0" x2="-269.1306063588585" y1="540.0" y2="-203.14482547739408" /><line stroke="#facc15" stroke-opacity="0.4" stroke-width="0.5" x1="400.0" x2="-187.78525229247327" y1="540.0" y2="-269.01699437494733" /><line stroke="#facc15" stroke-opacity="0.4" stroke-width="0.5" x1="400.0" x2="-100.00000000000045" y1="540.0" y2="-326.02540378443837" /><line stroke="#facc15" stroke-opacity="0.4" stroke-width="0.5" x1="400.0" x2="-6.736643075800885" y1="540.0" y2="-373.5454576426006" /><line stroke="#facc15" stroke-opacity="0.4" stroke-width="0.5" x1="400.0" x2="90.98300562505244" y1="540.0" y2="-411.05651629515353" /><line stroke="#facc15" stroke-opacity="0.4" stroke-width="0.5" x1="400.0" x2="192.0883091822402" y1="540.0" y2="-438.1476007338056" /><line stroke="#facc15" stroke-opacity="0.4" stroke-width="0.5" x1="400.0" x2="295.4715367323458" y1="540.0" y2="-454.52189536827325" /><line stroke="#facc15" stroke-opacity="0.4" stroke-width="0.5" x1="400.0" x2="399.99999999999983" y1="540.0" y2="-460.0" /><line stroke="#facc15" stroke-opacity="0.4" stroke-width="0.5" x1="400.0" x2="504.52846326765297" y1="540.0" y2="-454.52189536827336" /><line stroke="#facc15" stroke-opacity="0.4" stroke-width="0.5" x1="400.0" x2="607.9116908177585" y1="540.0" y2="-438.1476007338058" /><line stroke="#facc15" stroke-opacity="0.4" stroke-width="0.5" x1="400.0" x2="709.0169943749472" y1="540.0" y2="-411.05651629515364" /><line stroke="#facc15" stroke-opacity="0.4" stroke-width="0.5" x1="400.0" x2="806.7366430757997" y1="540.0" y2="-373.54545764260104" /><line stroke="#facc15" stroke-opacity="0.4" stroke-width="0.5" x1="400.0" x2="899.9999999999993" y1="540.0" y2="-326.02540378443905" /><line stroke="#facc15" stroke-opacity="0.4" stroke-width="0.5" x1="400.0" x2="987.7852522924729" y1="540.0" y2="-269.01699437494756" /><line stroke="#facc15" stroke-opacity="0.4" stroke-width="0.5" x1="400.0" x2="1069.1306063588577" y1="540.0" y2="-203.14482547739453" /><line stroke="#facc15" stroke-opacity="0.4" stroke-width="0.5" x1="400.0" x2="1143.1448254773936" y1="540.0" y2="-129.1306063588588" /><line stroke="#facc15" stroke-opacity="0.4" stroke-width="0.5" x1="400.0" x2="1209.0169943749474" y1="540.0" y2="-47.78525229247339" /><line stroke="#facc15" stroke-opacity="0.4" stroke-width="0.5" x1="400.0" x2="1266.0254037844384" y1="540.0" y2="39.999999999999545" /><line stroke="#facc15" stroke-opacity="0.4" stroke-width="0.5" x1="400.0" x2="1313.5454576426005" y1="540.0" y2="133.26335692419906" /><line stroke="#facc15" stroke-opacity="0.4" stroke-width="0.5" x1="400.0" x2="1351.0565162951534" y1="540.0" y2="230.98300562505239" /><line stroke="#facc15" stroke-opacity="0.4" stroke-width="0.5" x1="400.0" x2="1378.1476007338056" y1="540.0" y2="332.0883091822401" /><line stroke="#facc15" stroke-opacity="0.4" stroke-width="0.5" x1="400.0" x2="1394.5218953682734" y1="540.0" y2="435.4715367323457" /><circle cx="400.0" cy="120.0" fill="url(#blueGrad)" r="400.0" /><circle cx="400.0" cy="540.0" fill="url(#orangeGrad)" r="400.0" /></svg>